<svg xmlns="http://www.w3.org/2000/svg" viewBox="0 0 240 240" role="img" aria-labelledby="title"><title id="title">Purchase unaffordable</title><defs><linearGradient id="gold" x1="0" y1="0" x2="1" y2="1"><stop stop-color="#f1cf75"/><stop offset=".48" stop-color="#b47a29"/><stop offset="1" stop-color="#5b3515"/></linearGradient><linearGradient id="paper" x1="0" y1="0" x2="1" y2="1"><stop stop-color="#f6e9c5"/><stop offset="1" stop-color="#cdb889"/></linearGradient><filter id="shadow"><feDropShadow dy="5" stdDeviation="4" flood-opacity=".65"/></filter><filter id="glow"><feGaussianBlur stdDeviation="5" result="b"/><feMerge><feMergeNode in="b"/><feMergeNode in="SourceGraphic"/></feMerge></filter></defs><g filter="url(#shadow)" opacity="1"><rect x="38" y="14" width="164" height="212" rx="7" fill="url(#paper)" stroke="#777" stroke-width="7"/><rect x="43" y="19" width="154" height="202" fill="#777" opacity=".35"/><circle cx="120" cy="75" r="38" fill="#75806d" stroke="#34551e" stroke-width="4"/><g transform="translate(120 75) scale(0.55)"><path fill="#4f962a" stroke="#173b14" stroke-width="5" d="M-52 20C-48-35-8-63 49-49 44 7 8 45-52 20Z"/><path fill="none" stroke="#c7ed72" stroke-width="5" d="M-46 18C-14 2 10-18 43-44M-18 4l-7-27M7-15 3-42m0 33 27 10"/></g><circle cx="148" cy="99" r="17" fill="#342719" stroke="#c08b3d" stroke-width="3"/><text x="148" y="106" text-anchor="middle" fill="#fff0c3" font-family="Georgia" font-size="20">2</text><text x="120" y="142" text-anchor="middle" fill="#2d2116" font-family="Georgia" font-size="22">Blue 2</text><text x="120" y="169" text-anchor="middle" fill="#4e4131" font-family="Georgia" font-size="13">Move forward</text><text x="120" y="187" text-anchor="middle" fill="#4e4131" font-family="Georgia" font-size="13">2 spaces.</text><circle cx="93" cy="207" r="9" fill="#b98025"/><text x="120" y="214" text-anchor="middle" fill="#a11d22" font-family="Georgia" font-size="21">6</text></g></svg>
